# xmcd CD database file
#
# Track frame offsets:
#	150
#	15595
#	41067
#	68732
#	93772
#	110660
#	139062
#	166695
#	197952
#	231182
#	254425
#
# Disc length: 3801 seconds
#
# Revision: 0
# Processed by: cddbd v1.5PL3 Copyright (c) Steve Scherf et al.
# Submitted via: CDex 1.51
#
DISCID=900ed70b
DTITLE=Keiji Matsushima - The Song is You
DYEAR=1900
DGENRE=Jazz
TTITLE0=just because
TTITLE1=wrap your troubles in dreams
TTITLE2=yesterdays
TTITLE3=come sunday
TTITLE4=it's only a paper moon
TTITLE5=until then
TTITLE6=the song is you
TTITLE7=lady luck
TTITLE8=some true things
TTITLE9=here's that rainy day
TTITLE10=billy boy
EXTD=
EXTT0=
EXTT1=
EXTT2=
EXTT3=
EXTT4=
EXTT5=
EXTT6=
EXTT7=
EXTT8=
EXTT9=
EXTT10=
PLAYORDER=
